<svg width="17" height="16" viewBox="0 0 17 16" fill="none" xmlns="http://www.w3.org/2000/svg">
<path d="M1.83325 11.9507C1.83325 11.5458 1.93644 11.1476 2.13309 10.7936L6.25703 3.37054C6.62258 2.71254 7.25863 2.24826 7.99673 2.10064V2.10064C8.3289 2.0342 8.67094 2.0342 9.00311 2.10064V2.10064C9.74121 2.24826 10.3773 2.71254 10.7428 3.37054L14.8668 10.7936C15.0634 11.1476 15.1666 11.5458 15.1666 11.9507V11.9507C15.1666 13.2666 14.0999 14.3333 12.784 14.3333H4.21585C2.89998 14.3333 1.83325 13.2666 1.83325 11.9507V11.9507Z" stroke="#F2883D" stroke-width="1.5"/>
<path d="M8.5 6.00002L8.5 8.66669" stroke="#F2883D" stroke-width="1.5" stroke-linecap="round" stroke-linejoin="round"/>
<path d="M8.5 10.6667L8.5 11" stroke="#F2883D" stroke-width="1.5" stroke-linecap="round" stroke-linejoin="round"/>
</svg>
