<svg width="48" height="48" viewBox="0 0 49 48" fill="none" xmlns="http://www.w3.org/2000/svg">
<rect x="0.82666" width="48" height="48" rx="24" fill="#F7F7F7"/>
<path fill-rule="evenodd" clip-rule="evenodd" d="M23.0062 20.3604C23.0062 19.589 23.6613 19.2923 24.7463 19.2923C26.3023 19.2923 28.2676 19.7473 29.8235 20.5582V15.9099C28.1243 15.2571 26.4456 15 24.7463 15C20.5904 15 17.8267 17.0967 17.8267 20.5978C17.8267 26.0571 25.6062 25.1868 25.6062 27.5407C25.6062 28.4505 24.7873 28.7473 23.6408 28.7473C21.9416 28.7473 19.7715 28.0747 18.0519 27.1648V31.8725C19.9558 32.6637 21.8802 33 23.6408 33C27.8991 33 30.8267 30.9626 30.8267 27.422C30.8062 21.5275 23.0062 22.5758 23.0062 20.3604Z" fill="#635BFF"/>
</svg>
