<svg width="19" height="21" viewBox="0 0 19 21" fill="none" xmlns="http://www.w3.org/2000/svg">
<path d="M7.45166 3.32349C7.45166 2.79305 7.66237 2.28435 8.03745 1.90927C8.41252 1.5342 8.92123 1.32349 9.45166 1.32349C9.98209 1.32349 10.4908 1.5342 10.8659 1.90927C11.2409 2.28435 11.4517 2.79305 11.4517 3.32349C12.6001 3.86651 13.5791 4.71181 14.2837 5.76879C14.9884 6.82576 15.3921 8.05456 15.4517 9.32349V12.3235C15.5269 12.9452 15.7471 13.5405 16.0945 14.0616C16.4419 14.5827 16.9067 15.0149 17.4517 15.3235H1.45166C1.9966 15.0149 2.46147 14.5827 2.80885 14.0616C3.15623 13.5405 3.3764 12.9452 3.45166 12.3235V9.32349C3.51122 8.05456 3.91496 6.82576 4.61961 5.76879C5.32426 4.71181 6.30325 3.86651 7.45166 3.32349" stroke="#F3F5FF" stroke-width="1.5" stroke-linecap="round" stroke-linejoin="round"/>
<path d="M6.45166 15.3235V16.3235C6.45166 17.1191 6.76773 17.8822 7.33034 18.4448C7.89295 19.0074 8.65601 19.3235 9.45166 19.3235C10.2473 19.3235 11.0104 19.0074 11.573 18.4448C12.1356 17.8822 12.4517 17.1191 12.4517 16.3235V15.3235" stroke="#F3F5FF" stroke-width="1.5" stroke-linecap="round" stroke-linejoin="round"/>
</svg>
