<svg width="18" height="16" viewBox="0 0 18 16" fill="none" xmlns="http://www.w3.org/2000/svg">
<path d="M17.0661 7.28101L17.5048 7.04111L17.0661 7.28101ZM17.0661 8.71924L17.5048 8.95916L17.0661 8.71924ZM0.933866 7.28088L1.37255 7.52079L0.933866 7.28088ZM0.933855 8.71911L0.495169 8.95902L0.495169 8.95902L0.933855 8.71911ZM15.7657 4.75095C15.568 4.55817 15.2515 4.56217 15.0587 4.75989C14.8659 4.9576 14.8699 5.27416 15.0676 5.46694L15.7657 4.75095ZM6.83252 12.728C6.56503 12.6594 6.29259 12.8207 6.224 13.0882C6.15541 13.3556 6.31666 13.6281 6.58415 13.6967L6.83252 12.728ZM11.387 2.81277L11.2576 3.29574L11.387 2.81277ZM4.48326 12.3165L4.23732 12.7519L4.77133 11.9079L4.48326 12.3165ZM1.37255 7.52079C2.84602 4.82653 5.70944 3.00006 8.99997 3.00006V2.00006C5.33005 2.00006 2.13732 4.03831 0.495184 7.04097L1.37255 7.52079ZM16.6275 8.47933C15.154 11.1736 12.2906 13.0001 9.00003 13.0001V14.0001C12.67 14.0001 15.8627 11.9618 17.5048 8.95916L16.6275 8.47933ZM16.6275 7.52092C16.7909 7.81969 16.7908 8.18056 16.6275 8.47933L17.5048 8.95916C17.8317 8.3614 17.8317 7.63886 17.5048 7.04111L16.6275 7.52092ZM0.495184 7.04097C0.168277 7.63872 0.168272 8.36126 0.495169 8.95902L1.37254 8.47921C1.20915 8.18044 1.20915 7.81956 1.37255 7.52079L0.495184 7.04097ZM15.0676 5.46694C15.6842 6.06818 16.2114 6.76012 16.6275 7.52092L17.5048 7.04111C17.0407 6.19233 16.4529 5.42095 15.7657 4.75095L15.0676 5.46694ZM9.00003 13.0001C8.251 13.0001 7.52483 12.9055 6.83252 12.728L6.58415 13.6967C7.35694 13.8948 8.16654 14.0001 9.00003 14.0001V13.0001ZM8.99997 3.00006C9.78155 3.00006 10.5383 3.10299 11.2576 3.29574L11.5164 2.32981C10.7134 2.11465 9.86971 2.00006 8.99997 2.00006V3.00006ZM3.31307 10.883C2.5312 10.2061 1.87187 9.39226 1.37254 8.47921L0.495169 8.95902C1.05221 9.97761 1.7873 10.8848 2.65854 11.639L3.31307 10.883ZM4.72919 11.8812C4.22351 11.5955 3.74928 11.2606 3.31307 10.883L2.65854 11.639C3.14469 12.0599 3.67336 12.4333 4.23732 12.7519L4.72919 11.8812ZM2.69773 11.6697L4.19519 12.7252L4.77133 11.9079L3.27387 10.8523L2.69773 11.6697ZM11.2576 3.29574C11.9295 3.47576 12.5692 3.73427 13.1664 4.06089L13.6463 3.18353C12.9801 2.81922 12.2663 2.53073 11.5164 2.32981L11.2576 3.29574Z" fill="#1D1D1F"/>
<path d="M15.8424 1.09241L2.09241 14.8424" stroke="#1D1D1F" stroke-linecap="round" stroke-linejoin="round"/>
<path d="M6.25 8.00006C6.25 6.48128 7.48122 5.25006 9 5.25006" stroke="#1D1D1F" stroke-linecap="round"/>
</svg>
